<?xml version="1.0" encoding="utf-8"?>
<!-- Generator: Adobe Illustrator 20.1.0, SVG Export Plug-In . SVG Version: 6.00 Build 0)  -->
<svg version="1.1" id="Layer_1" xmlns="http://www.w3.org/2000/svg" xmlns:xlink="http://www.w3.org/1999/xlink" x="0px" y="0px"
	 viewBox="0 0 450 71.2" style="enable-background:new 0 0 450 71.2;" xml:space="preserve">
<style type="text/css">
	.st0{fill:#A5A5A5;}
</style>
<g id="artboard">
	<g id="design">
	</g>
</g>
<g id="logo">
	<g>
		<g>
			<g>
				<g>
					<g>
						<polygon class="st0" points="372.8,52.3 371.8,1.8 388,1.8 388,65.7 364.9,65.7 349.2,13.4 348.7,13.4 349.6,65.7 333.9,65.7 
							333.9,1.8 358,1.8 						"/>
						<polygon class="st0" points="83.2,7.9 74.5,66.1 57.3,66.1 69.4,1.8 97.6,1.8 109.6,66.1 92.5,66.1 83.7,7.9 						"/>
						<polygon class="st0" points="158.6,50.9 166.5,1.8 192.4,1.8 194.2,66.1 178.1,66.1 177.6,8.3 177.1,8.3 166.5,66.1 
							150.3,66.1 139.2,8.3 139.2,8.3 138.7,66.1 122.6,66.1 123.9,1.8 150.3,1.8 158.2,50.9 						"/>
						<path class="st0" d="M30.1,48.1c0.5,1.4,0.5,3.7,0,4.6c-0.5,2.3-1.8,4.2-6.5,4.2c-4.2,0-6.5-2.3-6.5-6v-6H0V50
							c0,14.3,11.1,18.5,23.6,18.5c11.6,0,21.3-4.2,22.7-14.8c0.9-5.5,0-9.2,0-10.6c-2.8-13.4-27.3-17.6-29.1-25
							c-0.5-1.4-0.5-2.8,0-3.2c0.5-1.8,1.8-4.2,6-4.2c3.7,0,6,2.3,6,6c0,1.4,0,4.2,0,4.2h16.2v-4.7C45.4,2.3,32.9,0,23.7,0
							C12.1,0,2.9,3.7,1,14.3c-0.5,2.8-0.5,5.5,0,8.8C4.2,36.1,26.8,39.8,30.1,48.1z"/>
						<path class="st0" d="M239.6,48.1c0.5,1.4,0.5,3.7,0,4.6c-0.5,2.3-1.8,4.2-6,4.2s-6.5-2.3-6.5-5.5v-6H210v5.1
							c0,14.3,11.1,18.5,23.1,18.5c11.6,0,20.8-3.7,22.7-14.3c0.9-5.5,0-9.2,0-10.6C253,30.7,229,27,227.1,19.6
							c-0.5-1.8-0.5-3.2-0.5-4.2c0.5-1.8,1.8-4.2,6-4.2c3.7,0,6,2.3,6,5.5c0,1.4,0,4.2,0,4.2h15.7v-4.7C254.3,2.3,241.8,0,233,0
							c-11.1,0-20.8,3.7-22.2,13.9c-0.5,2.8-0.5,5.5,0,8.8C213.2,36.1,235.9,39.8,239.6,48.1z"/>
						<path class="st0" d="M293.2,56.4c4.6,0,6-3.2,6-4.6c0-0.5,0-1.4,0-2.3V1.8h16.2v45.8c0,1.4,0,3.7,0,4.2
							c-0.9,12-10.6,15.7-22.7,15.7s-21.3-3.7-22.7-15.7c0-0.5,0-3.2,0-4.2V1.8h16.2v47.6c0,0.9,0,1.8,0,2.3
							C287.7,53.6,289.1,56.4,293.2,56.4z"/>
						<path class="st0" d="M427.3,56c4.6,0,6.5-2.8,6.5-4.6c0-0.9,0-1.4,0-2.3v-9.2h-6.5v-9.2H450v17.1c0,1.4,0,2.3,0,4.2
							c-0.9,11.6-11.1,15.7-22.7,15.7s-21.7-4.2-22.7-15.7c0-2.3,0-3.2-0.5-4.2v-27c0-0.9,0-3.2,0.5-4.2c1.4-12,11.1-15.7,22.7-15.7
							s21.3,3.7,22.7,15.7c0,1.8,0,4.2,0,4.2v2.3h-16.2v-3.7c0,0,0-1.4,0-2.3c-0.5-1.4-1.4-4.6-6.5-4.6c-4.6,0-6,3.2-6.5,4.6
							c0,0.9-0.5,1.8-0.5,3.2v29.1c0,0.9,0,1.8,0,2.3C421.3,52.7,422.7,56,427.3,56z"/>
					</g>
				</g>
			</g>
		</g>
	</g>
</g>
</svg>
