<?xml version="1.0" encoding="UTF-8" standalone="no"?>
<!-- Created with Inkscape (http://www.inkscape.org/) -->
<svg
   xmlns:dc="http://purl.org/dc/elements/1.1/"
   xmlns:cc="http://creativecommons.org/ns#"
   xmlns:rdf="http://www.w3.org/1999/02/22-rdf-syntax-ns#"
   xmlns:svg="http://www.w3.org/2000/svg"
   xmlns="http://www.w3.org/2000/svg"
   xmlns:sodipodi="http://sodipodi.sourceforge.net/DTD/sodipodi-0.dtd"
   xmlns:inkscape="http://www.inkscape.org/namespaces/inkscape"
   version="1.1"
   id="svg10"
   width="1280"
   height="720"
   viewBox="1000 0 1920 1100"
   sodipodi:docname="Botones.svg"
   inkscape:version="0.92.1 r15371">
  <metadata
     id="metadata16">
    <rdf:RDF>
      <cc:Work
         rdf:about="">
        <dc:format>image/svg+xml</dc:format>
        <dc:type
           rdf:resource="http://purl.org/dc/dcmitype/StillImage" />
        <dc:title></dc:title>
      </cc:Work>
    </rdf:RDF>
  </metadata>
  <defs
     id="defs14" />
  <sodipodi:namedview
     pagecolor="#ffffff"
     bordercolor="#666666"
     borderopacity="1"
     objecttolerance="10"
     gridtolerance="10"
     guidetolerance="10"
     inkscape:pageopacity="0"
     inkscape:pageshadow="2"
     inkscape:window-width="1920"
     inkscape:window-height="986"
     id="namedview12"
     showgrid="false"
     showguides="true"
     inkscape:guide-bbox="true"
     inkscape:zoom="1.8948088"
     inkscape:cx="1750.5746"
     inkscape:cy="797.6949"
     inkscape:window-x="-11"
     inkscape:window-y="-11"
     inkscape:window-maximized="1"
     inkscape:current-layer="svg10" />
  <g
     inkscape:groupmode="layer"
     id="layer1"
     inkscape:label="Corbata Boton"
     style="display:inline">
    <g
       transform="matrix(1.4442236,0,0,1.4442236,1601.8661,148.16258)"
       id="g4672"
       style="fill:#faf5f1;fill-opacity:1">
      <path
         sodipodi:nodetypes="cccccccccc"
         inkscape:connector-curvature="0"
         id="path3702"
         d="m 98.733517,36.999537 c -1.84992,0.47646 -3.06338,2.119778 -4.14268,4.009043 1.07895,4.754827 2.83026,7.71671 4.67722,10.423512 -4.12318,21.501093 -5.77625,42.343485 -6.01357,62.808348 3.03913,4.0205 6.33537,7.42394 10.022613,9.88897 3.82506,-2.68817 7.21871,-5.92542 9.6217,-10.42351 -0.34463,-20.799353 -1.07532,-41.620155 -6.01356,-62.674713 2.60242,-3.11344 3.45815,-6.663554 4.00904,-10.289876 -0.98968,-1.807611 -2.65231,-2.83012 -4.40995,-3.741774 -2.72518,-0.637083 -5.28466,-0.528553 -7.750813,0 z"
         style="opacity:0.5;fill:#faf5f1;fill-opacity:1;stroke:none;stroke-width:0.26458332px;stroke-linecap:butt;stroke-linejoin:miter;stroke-opacity:1" />
      <g
         id="g4569"
         transform="matrix(-0.88221241,0,0,0.88221241,161.73034,-125.33226)"
         style="fill:#faf5f1;fill-opacity:1">
        <path
           sodipodi:nodetypes="cccc"
           inkscape:connector-curvature="0"
           id="path4565"
           d="m 156.93002,239.47241 c -19.36852,-8.06514 -24.56122,-10.86748 -35.92372,-22.08276 0.62042,8.73633 2.84394,18.81838 12.49737,22.08276 z"
           style="opacity:0.5;fill:#faf5f1;fill-opacity:1;stroke:none;stroke-width:0.26458332px;stroke-linecap:butt;stroke-linejoin:miter;stroke-opacity:1" />
        <path
           style="opacity:0.5;fill:#faf5f1;fill-opacity:1;stroke:none;stroke-width:0.26458332px;stroke-linecap:butt;stroke-linejoin:miter;stroke-opacity:1"
           d="m 156.93002,239.47241 c -19.36852,8.06514 -24.56122,10.86748 -35.92372,22.08276 0.62042,-8.73633 2.84394,-18.81838 12.49737,-22.08276 z"
           id="path4637"
           inkscape:connector-curvature="0"
           sodipodi:nodetypes="cccc" />
      </g>
      <g
         transform="matrix(0.88221241,0,0,0.88221241,45.026848,-125.33226)"
         id="g4645"
         style="fill:#faf5f1;fill-opacity:1">
        <path
           style="opacity:0.5;fill:#faf5f1;fill-opacity:1;stroke:none;stroke-width:0.26458332px;stroke-linecap:butt;stroke-linejoin:miter;stroke-opacity:1"
           d="m 156.93002,239.47241 c -19.36852,-8.06514 -24.56122,-10.86748 -35.92372,-22.08276 0.62042,8.73633 2.84394,18.81838 12.49737,22.08276 z"
           id="path4641"
           inkscape:connector-curvature="0"
           sodipodi:nodetypes="cccc" />
        <path
           sodipodi:nodetypes="cccc"
           inkscape:connector-curvature="0"
           id="path4643"
           d="m 156.93002,239.47241 c -19.36852,8.06514 -24.56122,10.86748 -35.92372,22.08276 0.62042,-8.73633 2.84394,-18.81838 12.49737,-22.08276 z"
           style="opacity:0.5;fill:#faf5f1;fill-opacity:1;stroke:none;stroke-width:0.26458332px;stroke-linecap:butt;stroke-linejoin:miter;stroke-opacity:1" />
      </g>
    </g>
    <g
       transform="matrix(1.451632,0,0,1.451632,1600.5069,100.6541)"
       id="g4697">
      <path
         sodipodi:nodetypes="ccccccccccccccccccccc"
         inkscape:connector-curvature="0"
         id="path4548"
         d="m 94.487945,181.81661 c 0.43418,-1.87883 1.48195,-3.51509 5.891315,-3.82234 l 5.99652,-0.0351 c 5.29717,0.06 5.78085,2.00329 6.4524,3.89248 l 12.16838,3.96261 c 3.39984,1.47967 5.29562,4.32669 5.7861,8.45124 2.44466,13.15105 4.81739,27.08092 4.50635,45.40526 l 0.49593,16.46479 c -3.37826,2.62471 -6.41363,2.20087 -9.99294,0.19837 0.37472,-10.69656 -0.76831,-19.11652 -1.84746,-27.63227 l 0.0701,26.79147 c -3.74825,5.51759 -8.5794,6.16207 -13.81655,4.97957 -7.00688,-2.11995 -11.025385,-1.77123 -13.746415,-0.35068 -7.39715,2.17595 -11.341068,-1.07461 -14.868559,-4.97956 L 82.284463,229.403 c -0.990047,7.30361 -1.945347,16.09505 -2.384581,27.00187 -3.472289,1.29744 -6.816868,1.8093 -10.660479,-0.42081 l 0.983889,-23.35547 c 1.267492,-16.69599 3.149805,-27.85198 5.157647,-37.69049 0.229283,-4.14442 1.528815,-7.66921 6.744612,-8.9267 z"
         style="opacity:0.5;fill:#faf6f3;fill-opacity:1;stroke:none;stroke-width:0.26458332px;stroke-linecap:butt;stroke-linejoin:miter;stroke-opacity:1" />
      <g
         id="g4657"
         transform="matrix(0.88221241,0,0,0.88221241,45.026848,8.7665242)">
        <path
           sodipodi:nodetypes="cccc"
           inkscape:connector-curvature="0"
           id="path4653"
           d="m 156.93002,239.47241 c -19.36852,-8.06514 -24.56122,-10.86748 -35.92372,-22.08276 0.62042,8.73633 2.84394,18.81838 12.49737,22.08276 z"
           style="opacity:0.5;fill:#f8f7f5;fill-opacity:1;stroke:none;stroke-width:0.26458332px;stroke-linecap:butt;stroke-linejoin:miter;stroke-opacity:1" />
        <path
           style="opacity:0.5;fill:#f8f7f5;fill-opacity:1;stroke:none;stroke-width:0.26458332px;stroke-linecap:butt;stroke-linejoin:miter;stroke-opacity:1"
           d="m 156.93002,239.47241 c -19.36852,8.06514 -24.56122,10.86748 -35.92372,22.08276 0.62042,-8.73633 2.84394,-18.81838 12.49737,-22.08276 z"
           id="path4655"
           inkscape:connector-curvature="0"
           sodipodi:nodetypes="cccc" />
      </g>
      <g
         transform="matrix(-0.88221241,0,0,0.88221241,161.73034,8.7665242)"
         id="g4663">
        <path
           style="opacity:0.5;fill:#f8f7f5;fill-opacity:1;stroke:none;stroke-width:0.26458332px;stroke-linecap:butt;stroke-linejoin:miter;stroke-opacity:1"
           d="m 156.93002,239.47241 c -19.36852,-8.06514 -24.56122,-10.86748 -35.92372,-22.08276 0.62042,8.73633 2.84394,18.81838 12.49737,22.08276 z"
           id="path4659"
           inkscape:connector-curvature="0"
           sodipodi:nodetypes="cccc" />
        <path
           sodipodi:nodetypes="cccc"
           inkscape:connector-curvature="0"
           id="path4661"
           d="m 156.93002,239.47241 c -19.36852,8.06514 -24.56122,10.86748 -35.92372,22.08276 0.62042,-8.73633 2.84394,-18.81838 12.49737,-22.08276 z"
           style="opacity:0.5;fill:#f8f7f5;fill-opacity:1;stroke:none;stroke-width:0.26458332px;stroke-linecap:butt;stroke-linejoin:miter;stroke-opacity:1" />
      </g>
    </g>
    <g
       transform="matrix(2.0842162,0,0,2.0842162,1417.1763,250.80685)"
       id="g4779">
      <g
         style="fill:#faf5f1;fill-opacity:1"
         id="g4726"
         transform="matrix(0.88221241,0,0,0.88221241,58.96095,-61.456802)">
        <path
           sodipodi:nodetypes="cccc"
           inkscape:connector-curvature="0"
           id="path4722"
           d="m 156.93002,239.47241 c -19.36852,-8.06514 -24.56122,-10.86748 -35.92372,-22.08276 0.62042,8.73633 2.84394,18.81838 12.49737,22.08276 z"
           style="opacity:0.5;fill:#faf5f1;fill-opacity:1;stroke:none;stroke-width:0.26458332px;stroke-linecap:butt;stroke-linejoin:miter;stroke-opacity:1" />
        <path
           style="opacity:0.5;fill:#faf5f1;fill-opacity:1;stroke:none;stroke-width:0.26458332px;stroke-linecap:butt;stroke-linejoin:miter;stroke-opacity:1"
           d="m 156.93002,239.47241 c -19.36852,8.06514 -24.56122,10.86748 -35.92372,22.08276 0.62042,-8.73633 2.84394,-18.81838 12.49737,-22.08276 z"
           id="path4724"
           inkscape:connector-curvature="0"
           sodipodi:nodetypes="cccc" />
      </g>
      <path
         style="opacity:0.5;fill:#f8f7f5;fill-opacity:1;stroke:none;stroke-width:0.23341869px;stroke-linecap:butt;stroke-linejoin:miter;stroke-opacity:1"
         d="m 126.24252,149.80873 c 17.08715,-7.11517 21.66821,-9.58743 31.69235,-19.48168 -0.54734,7.70729 -2.50896,16.6018 -11.02533,19.48168 z"
         id="path4737"
         inkscape:connector-curvature="0"
         sodipodi:nodetypes="cccc" />
      <path
         sodipodi:nodetypes="cccc"
         inkscape:connector-curvature="0"
         id="path4739"
         d="m 126.24252,149.80873 c 17.08715,7.11517 21.66821,9.58743 31.69235,19.48168 -0.54734,-7.70729 -2.50896,-16.6018 -11.02533,-19.48168 z"
         style="opacity:0.5;fill:#f8f7f5;fill-opacity:1;stroke:none;stroke-width:0.23341869px;stroke-linecap:butt;stroke-linejoin:miter;stroke-opacity:1" />
    </g>
  </g>
</svg>
