<?xml version="1.0" encoding="utf-8"?>
<!-- Generator: Adobe Illustrator 19.1.0, SVG Export Plug-In . SVG Version: 6.00 Build 0)  -->
<svg
	version="1.1"
	xmlns="http://www.w3.org/2000/svg" 
	xmlns:xlink="http://www.w3.org/1999/xlink" 
	x="0px"	y="0px"
	width="100%" height="100%"
	viewBox="0 0 807.4 1080" 
	style="enable-background:new 0 0 807.4 1080;" 
	xml:space="preserve">
<style type="text/css">
	.st0{fill:#5D5D5D;}
</style>
<g>
	<polygon class="st0" points="747.2,575.8 747.3,575.7 619.2,447.4 502.4,330.4 356.8,184.5 232.6,60 232.6,164.6 232.6,253.6 
		409.2,430.3 554.6,575.7 650.6,575.8 	"/>
	<polygon class="st0" points="232.6,760.9 232.6,892.4 281.9,940.6 367.5,1024.3 367.5,893.6 367.5,716.9 367.5,623.6 367.5,618 
		450.9,700.6 559.3,807.9 650.6,807.9 748.2,807.9 654.2,713.9 558,617.7 557.2,616.9 452.6,512.3 367.5,427.2 367.5,426.3 
		232.6,294.5 232.6,381.1 232.6,511.2 	"/>
</g>
<path class="st0" d="M203,111.9c-0.5,1-1.7,2-3.2,2.5c-15.1,51.5-40.7,76.4-91.3,90.7c-2.3-4.9-8.5-12.5-12.7-16.9
	c42-10.1,69.8-33.3,77.9-63H72.2v-19.9h110.5l2.3-1.7L203,111.9z M184.4,81.8H88.6V62.4h95.8V81.8z"/>
<path class="st0" d="M69.6,313.4c14.9,3.9,31.8,10.1,42.9,15.7l-9,18.4c-10.9-5.6-28.5-12.7-42.9-16.6L69.6,313.4z M74.3,392.1
	c51.1-15.9,88.9-43.6,111.7-93.6c4.2,3.7,13.7,11,18.3,13.9c-22.8,48.1-63.8,80.4-111.7,96.6c0.3,1.7-0.5,3.5-2.5,4.6L74.3,392.1z
	 M89.7,271.8c14.9,4.4,31.6,10.6,43.2,16.7l-10.4,17.9c-11.7-6.6-27.5-13.4-42.2-17.9L89.7,271.8z M165.9,266.4
	c6.7,6.1,15.2,16.2,19.8,23.5l-10.2,7.8c-3.8-6.6-13.2-18.2-19.1-24L165.9,266.4z M191.4,256.9c6.7,6.3,15.2,16.4,19.8,23.1l-10,7.8
	c-4.2-6.8-13.2-17.7-19.1-23.5L191.4,256.9z"/>
<path class="st0" d="M206.3,482.4c-0.5,1.2-1.7,2-3.4,2.5c-7.5,18.7-21.6,40.9-35.3,54.6c-4.4-3.6-13.2-8.8-18.8-11.5
	c10.6-8.8,20.4-22.8,24.8-33.3H65.4v-20.1h120.6l2.3-1.5L206.3,482.4z M142.4,515.1c-0.2,1.7-1.8,3-4.5,3.6
	c-4.2,37-18.1,75.2-51.7,95.6c-4.5-3.7-12.6-10.3-18.3-13.5c31.8-17.2,44.9-50.7,47.2-88.5L142.4,515.1z"/>
<path class="st0" d="M76.5,672.3c16.7,5.2,36.8,14.2,49.1,22.3l-11,19.2c-12.1-8.1-31.8-17.4-47.9-23.1L76.5,672.3z M70.8,786.7
	c56.4-17.6,95.3-50.7,114.7-97.2c6.2,5.1,13.4,9.1,19.6,12.5c-20.8,46.1-60.8,82.1-116.2,101.9c-0.3,1.9-1.3,3.7-2.8,4.4L70.8,786.7
	z"/>
</svg>
