<?xml version="1.0" encoding="utf-8"?>
<!-- Generator: Adobe Illustrator 20.1.0, SVG Export Plug-In . SVG Version: 6.00 Build 0)  -->
<svg version="1.1" id="Layer_1" xmlns="http://www.w3.org/2000/svg" xmlns:xlink="http://www.w3.org/1999/xlink" x="0px" y="0px"
	 viewBox="0 0 476.2 142.5" style="enable-background:new 0 0 476.2 142.5;" xml:space="preserve">
<style type="text/css">
	.st0{fill:#1428A0;}
</style>
<g id="artboard">
	<g id="design">
	</g>
</g>
<g id="logo">
	<g>
		<g>
			<g>
				<g>
					<g>
						<polygon class="st0" points="385.9,89.1 384.9,38.6 401.1,38.6 401.1,102.5 378,102.5 362.3,50.2 361.8,50.2 362.7,102.5 
							347,102.5 347,38.6 371.1,38.6 						"/>
						<polygon class="st0" points="96.3,44.7 87.6,102.9 70.4,102.9 82.5,38.6 110.7,38.6 122.7,102.9 105.6,102.9 96.8,44.7 						
							"/>
						<polygon class="st0" points="171.7,87.7 179.6,38.6 205.5,38.6 207.3,102.9 191.2,102.9 190.7,45.1 190.2,45.1 179.6,102.9 
							163.4,102.9 152.3,45.1 152.3,45.1 151.8,102.9 135.7,102.9 137,38.6 163.4,38.6 171.3,87.7 						"/>
						<path class="st0" d="M43.2,84.9c0.5,1.4,0.5,3.7,0,4.6c-0.5,2.3-1.8,4.2-6.5,4.2c-4.2,0-6.5-2.3-6.5-6v-6H13.1v5.1
							c0,14.3,11.1,18.5,23.6,18.5c11.6,0,21.3-4.2,22.7-14.8c0.9-5.5,0-9.2,0-10.6c-2.8-13.4-27.3-17.6-29.1-25
							c-0.5-1.4-0.5-2.8,0-3.2c0.5-1.8,1.8-4.2,6-4.2c3.7,0,6,2.3,6,6c0,1.4,0,4.2,0,4.2h16.2V53c0-13.9-12.5-16.2-21.7-16.2
							c-11.6,0-20.8,3.7-22.7,14.3c-0.5,2.8-0.5,5.5,0,8.8C17.3,72.9,39.9,76.6,43.2,84.9z"/>
						<path class="st0" d="M252.7,84.9c0.5,1.4,0.5,3.7,0,4.6c-0.5,2.3-1.8,4.2-6,4.2c-4.2,0-6.5-2.3-6.5-5.5v-6h-17.1v5.1
							c0,14.3,11.1,18.5,23.1,18.5c11.6,0,20.8-3.7,22.7-14.3c0.9-5.5,0-9.2,0-10.6c-2.8-13.4-26.8-17.1-28.7-24.5
							c-0.5-1.8-0.5-3.2-0.5-4.2c0.5-1.8,1.8-4.2,6-4.2c3.7,0,6,2.3,6,5.5c0,1.4,0,4.2,0,4.2h15.7V53c0-13.9-12.5-16.2-21.3-16.2
							c-11.1,0-20.8,3.7-22.2,13.9c-0.5,2.8-0.5,5.5,0,8.8C226.3,72.9,249,76.6,252.7,84.9z"/>
						<path class="st0" d="M306.3,93.2c4.6,0,6-3.2,6-4.6c0-0.5,0-1.4,0-2.3V38.6h16.2v45.8c0,1.4,0,3.7,0,4.2
							c-0.9,12-10.6,15.7-22.7,15.7s-21.3-3.7-22.7-15.7c0-0.5,0-3.2,0-4.2V38.6h16.2v47.6c0,0.9,0,1.8,0,2.3
							C300.8,90.4,302.2,93.2,306.3,93.2z"/>
						<path class="st0" d="M440.4,92.8c4.6,0,6.5-2.8,6.5-4.6c0-0.9,0-1.4,0-2.3v-9.2h-6.5v-9.2h22.7v17.1c0,1.4,0,2.3,0,4.2
							c-0.9,11.6-11.1,15.7-22.7,15.7c-11.6,0-21.7-4.2-22.7-15.7c0-2.3,0-3.2-0.5-4.2V57.6c0-0.9,0-3.2,0.5-4.2
							c1.4-12,11.1-15.7,22.7-15.7c11.6,0,21.3,3.7,22.7,15.7c0,1.8,0,4.2,0,4.2v2.3h-16.2v-3.7c0,0,0-1.4,0-2.3
							c-0.5-1.4-1.4-4.6-6.5-4.6c-4.6,0-6,3.2-6.5,4.6c0,0.9-0.5,1.8-0.5,3.2v29.1c0,0.9,0,1.8,0,2.3
							C434.4,89.5,435.8,92.8,440.4,92.8z"/>
					</g>
				</g>
			</g>
		</g>
	</g>
	<g>
		<path class="st0" d="M347.3,112.5v7.6h-2v-17.9h2v2.1c1-1.5,2.8-2.3,4.5-2.3c3.5,0,6.2,2.7,6.2,6.4c0,3.7-2.8,6.4-6.2,6.4
			C350,114.6,348.3,113.9,347.3,112.5z M356,108.2c0-2.5-2-4.6-4.4-4.6c-2.6,0-4.5,2.1-4.5,4.6s1.9,4.6,4.5,4.6
			C354.1,112.8,356,110.8,356,108.2z"/>
		<path class="st0" d="M360.3,102.1h2v1.8c0.6-1.2,1.7-1.8,3.1-1.8c1.1,0,1.8,0.3,2.4,0.6l-0.8,1.9c-0.5-0.3-0.9-0.5-1.9-0.5
			c-1.6,0-2.8,1.1-2.8,3.4c0,0.3,0,6.9,0,6.9h-2L360.3,102.1L360.3,102.1z"/>
		<path class="st0" d="M368.3,108.3c0-3.7,2.7-6.5,6.4-6.5c3.6,0,6.3,2.5,6.3,6.2v0.8h-10.7c0.3,2.3,2.1,3.9,4.5,3.9
			c2,0,3.4-1,4.1-2.6l1.7,0.9c-1.1,2.2-3,3.5-5.8,3.5C370.9,114.6,368.3,111.9,368.3,108.3z M370.4,107.2h8.6
			c-0.4-2.2-1.9-3.5-4.3-3.5C372.5,103.6,370.8,105.1,370.4,107.2z"/>
		<path class="st0" d="M382.3,112.1l1.7-1.1c0.8,1.1,2,1.9,3.5,1.9c1.8,0,2.7-0.9,2.7-2c0-1.3-1.6-1.5-3.3-1.9
			c-2-0.5-4.1-1.1-4.1-3.5c0-1.9,1.7-3.6,4.5-3.6c2,0,3.7,0.8,4.7,2l-1.6,1.1c-0.8-0.9-1.8-1.4-3.1-1.4c-1.6,0-2.5,0.8-2.5,1.8
			c0,1.2,1.4,1.5,3.2,1.9c2,0.5,4.2,1.1,4.2,3.6c0,1.6-1.4,3.8-4.8,3.8C385.2,114.6,383.4,113.7,382.3,112.1z"/>
		<path class="st0" d="M394,108.3c0-3.7,2.7-6.5,6.4-6.5c3.6,0,6.3,2.5,6.3,6.2v0.8H396c0.3,2.3,2.1,3.9,4.5,3.9c2,0,3.4-1,4.1-2.6
			l1.7,0.9c-1.1,2.2-3,3.5-5.8,3.5C396.5,114.6,394,111.9,394,108.3z M396,107.2h8.6c-0.4-2.2-1.9-3.5-4.3-3.5
			C398.2,103.6,396.5,105.1,396,107.2z"/>
		<path class="st0" d="M408.9,102.1h2v1.9c0.8-1.3,2.3-2.1,4.2-2.1c3.2,0,5.2,2.1,5.2,5.6v7h-2v-6.9c0-2.3-1.2-3.9-3.6-3.9
			c-2.1,0-3.8,1.7-3.8,3.9v6.8h-2L408.9,102.1L408.9,102.1z"/>
		<path class="st0" d="M421.6,102.1h2.1v-2.3l2-1.4v3.7h2.9v1.8h-2.9v5.7c0,2.5,0.5,2.9,2.9,2.9v1.9h-0.3c-3.6,0-4.6-1-4.6-4.7V104
			h-2.1V102.1z"/>
		<path class="st0" d="M429.9,108.3c0-3.7,2.8-6.4,6.3-6.4c1.7,0,3.5,0.8,4.5,2.3v-2h2v12.3h-2v-2.1c-1,1.5-2.8,2.3-4.5,2.3
			C432.8,114.6,429.9,111.9,429.9,108.3z M440.8,108.2c0-2.5-1.9-4.6-4.5-4.6c-2.5,0-4.4,2-4.4,4.6c0,2.5,2,4.6,4.4,4.6
			C438.9,112.8,440.8,110.8,440.8,108.2z"/>
	</g>
</g>
</svg>
